<svg width="58" height="92" viewBox="0 0 58 92" fill="none" xmlns="http://www.w3.org/2000/svg">
<path d="M57.9982 86.6715C57.9982 87.2794 57.9757 87.8092 57.9364 88.2665C57.9046 88.6486 57.8512 89.0285 57.7763 89.4042C57.7255 89.6698 57.6522 89.9304 57.5572 90.1829C57.471 90.4008 57.3419 90.5979 57.1781 90.7618C56.9321 90.9817 56.6455 91.1481 56.3356 91.251C55.8929 91.4139 55.4396 91.5445 54.9791 91.6418C54.4736 91.7499 53.9588 91.8358 53.4345 91.8995C52.9006 91.9659 52.3632 91.9988 51.8253 91.9979C50.1342 92.0234 48.4474 91.8161 46.8095 91.3813C45.3912 90.9862 44.0835 90.2512 42.9929 89.2363C41.7767 88.0403 40.7922 86.6168 40.0919 85.0417C39.1001 82.8581 38.2775 80.597 37.6317 78.2795L27.1536 42.6535L11.6345 88.8194C11.498 89.2706 11.2964 89.6981 11.0363 90.0873C10.7688 90.4376 10.406 90.6976 9.99438 90.8342C9.40213 91.0325 8.78775 91.1522 8.16612 91.1903C7.41722 91.2559 6.42867 91.2887 5.20047 91.2887C4.17872 91.3018 3.15719 91.2476 2.14214 91.1266C1.36421 91.0166 0.805343 90.811 0.457103 90.51C0.288905 90.3516 0.160618 90.1534 0.0833126 89.9325C0.0060076 89.7116 -0.0179937 89.4747 0.0133771 89.2421C0.101732 88.5136 0.29088 87.802 0.575055 87.1289L22.4636 28.2201L20.8235 23.1485C18.8464 16.8649 17.269 12.9425 16.0914 11.3812C14.9137 9.81995 13.1688 9.03933 10.8566 9.03933C9.58808 9.05722 8.32708 9.24304 7.10455 9.59223C5.7584 9.96083 4.93835 10.1451 4.64441 10.1451C4.4576 10.1511 4.27256 10.1062 4.10801 10.0149C3.9256 9.87904 3.79222 9.68453 3.72887 9.46197C3.60949 9.10476 3.53585 8.73302 3.50982 8.35616C3.46863 7.90072 3.4471 7.30439 3.44523 6.56719C3.42577 5.55605 3.48966 4.54503 3.6362 3.54504C3.70032 2.9682 3.93124 2.42457 4.29897 1.98475C4.67844 1.6193 5.12949 1.34193 5.62173 1.17132C6.34404 0.909076 7.08121 0.692531 7.82912 0.52289C8.64927 0.319404 9.48279 0.178147 10.323 0.100253C11.0784 0.0336728 11.7946 0.00182906 12.4658 0.00182906C14.5303 -0.0246895 16.5889 0.237259 18.5852 0.780525C20.4448 1.33274 22.1378 2.36266 23.5055 3.77373C24.9771 5.24621 26.3542 7.30439 27.6367 9.94829C28.9192 12.5922 30.1708 16.0389 31.3915 20.2884L47.9806 75.6192C48.3013 76.8659 48.7192 78.0837 49.2304 79.2609C49.5668 80.0318 50.0013 80.7531 50.5222 81.4059C50.9172 81.891 51.4284 82.2612 52.0051 82.4799C52.6404 82.6875 53.3046 82.7854 53.9709 82.7693C54.4351 82.7712 54.8987 82.7383 55.3583 82.6709C55.7132 82.612 56.0717 82.5791 56.4311 82.5725C56.6886 82.5663 56.945 82.6105 57.1865 82.7028C57.2981 82.7564 57.3975 82.8336 57.4783 82.9293C57.5591 83.0251 57.6195 83.1372 57.6555 83.2586C57.7846 83.6593 57.8685 84.0741 57.9055 84.4946C57.9773 85.2178 58.0082 85.9446 57.9982 86.6715Z" fill="#006BBE"/>
</svg>
