<svg width="200" height="200" viewBox="0 0 200 200" fill="none" xmlns="http://www.w3.org/2000/svg">
<circle cx="100" cy="100" r="100" fill="#059B05"/>
<g clip-path="url(#clip0_268_40)">
<path fill-rule="evenodd" clip-rule="evenodd" d="M94.6543 44.9805V57.7467H105.597V44.9805H94.6543ZM91.0069 37.6855C88.9924 37.6855 87.3594 39.3186 87.3594 41.333V61.394C87.3594 63.4085 88.9924 65.0415 91.0069 65.0415H109.244C111.259 65.0415 112.892 63.4085 112.892 61.394V41.333C112.892 39.3186 111.259 37.6855 109.244 37.6855H91.0069Z" fill="white"/>
<path fill-rule="evenodd" clip-rule="evenodd" d="M155.389 94.7725H142.623V105.715H155.389V94.7725ZM162.684 91.125C162.684 89.1105 161.052 87.4775 159.037 87.4775H138.976C136.961 87.4775 135.328 89.1105 135.328 91.125V109.362C135.328 111.377 136.961 113.01 138.976 113.01H159.037C161.052 113.01 162.684 111.377 162.684 109.362V91.125Z" fill="white"/>
<path fill-rule="evenodd" clip-rule="evenodd" d="M94.6543 142.74V155.506H105.597V142.74H94.6543ZM91.0069 135.445C88.9924 135.445 87.3594 137.078 87.3594 139.092V159.154C87.3594 161.168 88.9924 162.801 91.0069 162.801H109.244C111.259 162.801 112.892 161.168 112.892 159.154V139.092C112.892 137.078 111.259 135.445 109.244 135.445H91.0069Z" fill="white"/>
<path fill-rule="evenodd" clip-rule="evenodd" d="M152.284 94.0338H144.929C142.391 75.4741 128.591 60.5006 110.643 56.226C110.471 54.2838 109.938 50.2876 109.677 48.5681C132.135 52.6942 149.593 71.1061 152.284 94.0338ZM144.922 106.454H152.277C149.501 129.923 131.248 148.651 108.006 152.149V144.757C127.211 141.382 142.242 125.889 144.922 106.454ZM91.9907 144.711C73.6191 141.373 59.1157 126.936 55.6796 108.599H48.2747C51.8627 130.973 69.583 148.624 91.9907 152.109V144.711ZM55.5595 92.5078C58.7615 73.8689 73.3718 59.1294 91.9442 55.7351V48.3354C69.3355 51.8726 51.5082 69.8332 48.1719 92.5078H55.5595Z" fill="white"/>
<path fill-rule="evenodd" clip-rule="evenodd" d="M57.6294 94.7725H44.8633V105.715H57.6294V94.7725ZM64.9243 91.125C64.9243 89.1105 63.2913 87.4775 61.2769 87.4775H41.2158C39.2014 87.4775 37.5684 89.1105 37.5684 91.125V109.362C37.5684 111.377 39.2014 113.01 41.2158 113.01H61.2769C63.2913 113.01 64.9243 111.377 64.9243 109.362V91.125Z" fill="white"/>
</g>
<defs>
<clipPath id="clip0_268_40">
<rect width="126" height="126" fill="white" transform="translate(37 37)"/>
</clipPath>
</defs>
</svg>
