<svg width="470" height="512" viewBox="0 0 470 512" fill="none" xmlns="http://www.w3.org/2000/svg">
<g clip-path="url(#clip0_307_38)">
<mask id="mask0_307_38" style="mask-type:luminance" maskUnits="userSpaceOnUse" x="0" y="0" width="470" height="512">
<path d="M470 0H0V512H470V0Z" fill="white"/>
</mask>
<g mask="url(#mask0_307_38)">
<path d="M469.601 213.855C469.601 149.301 417.378 96.7108 352.956 96.1168C339.144 40.4499 288.538 0 230.004 0C160.152 0 103.324 56.8279 103.324 126.68C103.324 127.281 103.328 127.883 103.336 128.488C102.746 128.477 102.156 128.473 101.566 128.473C45.5619 128.473 0 174.03 0 230.035C0 286.039 45.5629 331.601 101.566 331.601H112.961V372.815C94.8948 379.073 81.8828 396.249 81.8828 416.417C81.8828 441.854 102.578 462.55 128.016 462.55C153.457 462.55 174.152 441.854 174.152 416.417C174.152 396.249 161.137 379.073 143.07 372.815V331.601H219.746V422.265C201.68 428.522 188.664 445.698 188.664 465.866C188.664 491.304 209.359 511.999 234.801 511.999C260.237 511.999 280.933 491.304 280.933 465.866C280.933 445.698 267.921 428.522 249.855 422.265V331.601H326.526V372.815C308.46 379.073 295.448 396.249 295.448 416.417C295.448 441.854 316.144 462.55 341.581 462.55C367.022 462.55 387.718 441.854 387.718 416.417C387.718 396.249 374.702 379.073 356.636 372.815V331.495C419.354 328.975 469.601 277.179 469.601 213.856V213.855ZM128.02 432.444C119.18 432.444 111.992 425.253 111.992 416.417C111.992 407.577 119.18 400.39 128.02 400.39C136.855 400.39 144.043 407.577 144.043 416.417C144.043 425.253 136.855 432.444 128.02 432.444ZM234.8 481.89C225.965 481.89 218.777 474.702 218.777 465.866C218.777 457.026 225.965 449.839 234.801 449.839C243.641 449.839 250.828 457.026 250.828 465.866C250.828 474.702 243.636 481.89 234.8 481.89ZM341.585 432.444C332.745 432.444 325.558 425.253 325.558 416.417C325.558 407.577 332.745 400.39 341.585 400.39C350.421 400.39 357.612 407.577 357.612 416.417C357.612 425.253 350.421 432.444 341.585 432.444Z" fill="white"/>
</g>
</g>
<defs>
<clipPath id="clip0_307_38">
<rect width="470" height="512" fill="white"/>
</clipPath>
</defs>
</svg>
