<svg width="200" height="200" viewBox="0 0 200 200" fill="none" xmlns="http://www.w3.org/2000/svg">
<circle cx="100" cy="100" r="100" fill="#337EED"/>
<g clip-path="url(#clip0_271_10)">
<path d="M38.6152 96.3237H162.584V103.324H38.6152V96.3237Z" fill="white"/>
<path d="M104.1 77.7285V97.7285H97.0996V77.7285H104.1Z" fill="white"/>
<path d="M65.1152 121.118V101.118H72.1152V121.118H65.1152Z" fill="white"/>
<path d="M129.084 121.118V101.118H136.084V121.118H129.084Z" fill="white"/>
<path fill-rule="evenodd" clip-rule="evenodd" d="M117.6 47.6313H83.5996C83.0473 47.6313 82.5996 48.0791 82.5996 48.6313V72.6313C82.5996 73.1836 83.0473 73.6313 83.5996 73.6313H117.6C118.152 73.6313 118.6 73.1836 118.6 72.6313V48.6313C118.6 48.0791 118.152 47.6313 117.6 47.6313ZM83.5996 40.6313C79.1813 40.6313 75.5996 44.2131 75.5996 48.6313V72.6313C75.5996 77.0496 79.1813 80.6313 83.5996 80.6313H117.6C122.018 80.6313 125.6 77.0496 125.6 72.6313V48.6313C125.6 44.2131 122.018 40.6313 117.6 40.6313H83.5996Z" fill="white"/>
<path fill-rule="evenodd" clip-rule="evenodd" d="M51.6152 151.215H85.6152C86.1675 151.215 86.6152 150.767 86.6152 150.215V126.215C86.6152 125.663 86.1675 125.215 85.6152 125.215H51.6152C51.063 125.215 50.6152 125.663 50.6152 126.215V150.215C50.6152 150.767 51.063 151.215 51.6152 151.215ZM85.6152 158.215C90.0335 158.215 93.6152 154.633 93.6152 150.215V126.215C93.6152 121.797 90.0335 118.215 85.6152 118.215H51.6152C47.197 118.215 43.6152 121.797 43.6152 126.215V150.215C43.6152 154.633 47.197 158.215 51.6152 158.215H85.6152Z" fill="white"/>
<path fill-rule="evenodd" clip-rule="evenodd" d="M115.584 151.215H149.584C150.136 151.215 150.584 150.767 150.584 150.215V126.215C150.584 125.663 150.136 125.215 149.584 125.215H115.584C115.032 125.215 114.584 125.663 114.584 126.215V150.215C114.584 150.767 115.032 151.215 115.584 151.215ZM149.584 158.215C154.002 158.215 157.584 154.633 157.584 150.215V126.215C157.584 121.797 154.002 118.215 149.584 118.215H115.584C111.166 118.215 107.584 121.797 107.584 126.215V150.215C107.584 154.633 111.166 158.215 115.584 158.215H149.584Z" fill="white"/>
</g>
<defs>
<clipPath id="clip0_271_10">
<rect width="125" height="119" fill="white" transform="translate(38 40)"/>
</clipPath>
</defs>
</svg>
