<svg width="512" height="408" viewBox="0 0 512 408" fill="none" xmlns="http://www.w3.org/2000/svg">
<path d="M404.481 128.061C401.398 127.972 398.453 126.761 396.201 124.653C393.949 122.546 392.545 119.688 392.253 116.617C389.778 92.9958 379.8 70.7891 363.783 53.2532C347.765 35.7172 326.55 23.7746 303.249 19.1766C279.948 14.5786 255.787 17.5672 234.309 27.7041C212.83 37.841 195.165 54.5929 183.903 75.5032C182.407 78.2831 179.934 80.4092 176.96 81.4701C173.987 82.531 170.727 82.4512 167.809 81.2462C158.001 77.2439 147.31 75.8988 136.816 77.3464C123.544 79.163 111.272 85.4005 101.982 95.0514C92.6911 104.703 86.9255 117.203 85.6156 130.535C85.0232 136.677 85.354 142.871 86.5969 148.915C86.9551 150.546 86.9884 152.231 86.695 153.874C86.4015 155.517 85.7871 157.087 84.8869 158.493C83.9866 159.899 82.8182 161.114 81.4483 162.068C80.0784 163.022 78.5339 163.696 76.9031 164.053C58.5017 168.247 42.2888 179.07 31.3586 194.456C20.4284 209.842 15.5462 228.713 17.644 247.469C19.7417 266.226 28.6724 283.554 42.7317 296.145C56.7909 308.736 74.9942 315.709 93.8673 315.734H110.934V281.601C111.021 275.491 112.935 269.546 116.43 264.533C112.942 259.517 111.028 253.576 110.934 247.467V179.201C110.934 140.4 185.678 119.467 256.001 119.467C326.324 119.467 401.068 140.4 401.068 179.201V247.467C400.974 253.576 399.06 259.517 395.572 264.533C399.067 269.546 400.981 275.491 401.068 281.601V315.734C425.678 315.751 449.311 306.102 466.877 288.865C484.443 271.628 494.537 248.181 494.985 223.574C495.432 198.968 486.198 175.17 469.27 157.305C452.343 139.44 429.076 128.938 404.481 128.061Z" fill="white"/>
<path d="M128 349.868C128 370.006 182.741 392.534 256 392.534C329.259 392.534 384 370.006 384 349.868V310.725C357.948 330.727 305.929 341.334 256 341.334C206.071 341.334 154.052 330.727 128 310.725V349.868Z" fill="white"/>
<path d="M256 221.867C326.692 221.867 384 202.764 384 179.2C384 155.636 326.692 136.533 256 136.533C185.308 136.533 128 155.636 128 179.2C128 202.764 185.308 221.867 256 221.867Z" fill="white"/>
<path d="M128 247.467C128 267.605 182.741 290.133 256 290.133C329.259 290.133 384 267.605 384 247.467V208.324C357.948 228.326 305.929 238.933 256 238.933C206.071 238.933 154.052 228.326 128 208.324V247.467Z" fill="white"/>
<path d="M256 324.266C329.259 324.266 384 301.738 384 281.599C383.955 280.133 383.643 278.687 383.078 277.332C356.693 296.865 305.331 307.199 256 307.199C206.669 307.199 155.307 296.865 128.922 277.332C128.357 278.687 128.045 280.133 128 281.599C128 301.738 182.741 324.266 256 324.266Z" fill="white"/>
</svg>
