<svg width="512" height="408" viewBox="0 0 512 408" fill="none" xmlns="http://www.w3.org/2000/svg">
<path d="M404.48 128.06C401.397 127.971 398.452 126.76 396.2 124.652C393.948 122.545 392.544 119.687 392.252 116.616C389.777 92.9953 379.799 70.7886 363.782 53.2527C347.764 35.7167 326.549 23.7741 303.248 19.1761C279.947 14.5781 255.786 17.5667 234.308 27.7036C212.829 37.8405 195.164 54.5924 183.902 75.5027C182.406 78.2826 179.933 80.4087 176.959 81.4696C173.986 82.5305 170.726 82.4507 167.808 81.2457C158 77.2434 147.309 75.8983 136.815 77.3459C123.543 79.1625 111.271 85.4 101.981 95.0509C92.6904 104.702 86.9248 117.203 85.6149 130.534C85.0225 136.676 85.3533 142.871 86.5962 148.915C86.9544 150.546 86.9877 152.231 86.6943 153.874C86.4008 155.517 85.7864 157.087 84.8862 158.493C83.9859 159.899 82.8175 161.113 81.4476 162.067C80.0777 163.021 78.5332 163.696 76.9024 164.053C58.501 168.247 42.2881 179.069 31.3579 194.455C20.4277 209.841 15.5455 228.713 17.6433 247.469C19.741 266.226 28.6717 283.553 42.731 296.144C56.7902 308.735 74.9935 315.708 93.8666 315.733H110.933V281.6C111.02 275.49 112.934 269.546 116.429 264.533C112.941 259.517 111.027 253.575 110.933 247.466V179.2C110.933 140.399 185.677 119.466 256 119.466C326.323 119.466 401.067 140.399 401.067 179.2V247.466C400.973 253.575 399.059 259.517 395.571 264.533C399.066 269.546 400.98 275.49 401.067 281.6V315.733C425.677 315.75 449.31 306.101 466.876 288.864C484.442 271.627 494.536 248.18 494.984 223.573C495.431 198.967 486.197 175.169 469.269 157.304C452.342 139.439 429.075 128.937 404.48 128.06Z" fill="#808080"/>
<path d="M128 349.867C128 370.005 182.741 392.533 256 392.533C329.259 392.533 384 370.005 384 349.867V310.724C357.948 330.726 305.929 341.333 256 341.333C206.071 341.333 154.052 330.726 128 310.724V349.867Z" fill="#808080"/>
<path d="M256 221.867C326.692 221.867 384 202.764 384 179.2C384 155.636 326.692 136.533 256 136.533C185.308 136.533 128 155.636 128 179.2C128 202.764 185.308 221.867 256 221.867Z" fill="#808080"/>
<path d="M128 247.467C128 267.605 182.741 290.133 256 290.133C329.259 290.133 384 267.605 384 247.467V208.324C357.948 228.326 305.929 238.933 256 238.933C206.071 238.933 154.052 228.326 128 208.324V247.467Z" fill="#808080"/>
<path d="M256 324.267C329.259 324.267 384 301.739 384 281.6C383.955 280.134 383.643 278.688 383.078 277.333C356.693 296.866 305.331 307.2 256 307.2C206.669 307.2 155.307 296.866 128.922 277.333C128.357 278.688 128.045 280.134 128 281.6C128 301.739 182.741 324.267 256 324.267Z" fill="#808080"/>
</svg>
