<svg width="200" height="200" viewBox="0 0 200 200" fill="none" xmlns="http://www.w3.org/2000/svg">
<circle cx="100" cy="100" r="100" fill="#EDB342"/>
<g clip-path="url(#clip0_271_6)">
<path d="M100.386 37.6855C65.8913 37.6855 37.8281 65.7487 37.8281 100.243C37.8281 134.738 65.8913 162.801 100.386 162.801C134.88 162.801 162.944 134.738 162.944 100.243C162.944 65.7487 134.88 37.6855 100.386 37.6855ZM45.6478 100.243C45.6456 95.383 46.2922 90.5441 47.5705 85.855H67.0184C65.8274 95.4101 65.8274 105.076 67.0184 114.632H47.5705C46.2922 109.942 45.6456 105.104 45.6478 100.243ZM73.9454 100.243C73.9406 95.4312 74.2597 90.6242 74.9004 85.855H96.476V114.632H74.8999C74.2593 109.862 73.9405 105.055 73.9454 100.243ZM104.296 46.1709C109.423 47.8991 114.395 52.9462 118.357 60.6029C120.99 65.6908 123.051 71.5994 124.482 78.0353H104.296V46.1709ZM96.476 46.1709V78.0362H76.2913C77.7216 71.6006 79.7824 65.6918 82.4153 60.6039C86.3765 52.9462 91.3484 47.9001 96.476 46.1709ZM96.476 122.451V154.317C91.3484 152.588 86.3765 147.541 82.4141 139.885C79.7811 134.797 77.7203 128.888 76.2901 122.452L96.476 122.451ZM104.296 154.317V122.451H124.482C123.051 128.887 120.99 134.796 118.357 139.884C114.395 147.54 109.423 152.587 104.296 154.317ZM104.296 114.632V85.855H125.872C126.512 90.6242 126.831 95.4312 126.826 100.243C126.831 105.055 126.512 109.862 125.871 114.632H104.296ZM133.753 85.855H153.202C155.765 95.2759 155.765 105.211 153.202 114.632H133.753C134.351 109.859 134.649 105.053 134.646 100.243C134.649 95.4331 134.351 90.6277 133.753 85.855ZM150.411 78.0353H132.471C130.889 70.2754 128.471 63.1289 125.303 57.009C123.926 54.3186 122.321 51.7514 120.504 49.3359C133.831 54.641 144.562 64.938 150.411 78.0353ZM80.2689 49.335C78.4521 51.7504 76.8464 54.3175 75.4693 57.008C72.302 63.1282 69.8841 70.2744 68.3015 78.0343H50.36C56.2102 64.9368 66.9411 54.6398 80.2689 49.335ZM50.36 122.451H68.3005C69.8831 130.211 72.301 137.357 75.4683 143.477C76.8454 146.168 78.4511 148.735 80.2679 151.15C66.9406 145.845 56.2098 135.549 50.36 122.451ZM120.503 151.151C122.32 148.736 123.925 146.169 125.302 143.478C128.47 137.358 130.888 130.212 132.47 122.452H150.411C144.562 135.55 133.831 145.846 120.503 151.151Z" fill="white"/>
</g>
<defs>
<clipPath id="clip0_271_6">
<rect width="126" height="126" fill="white" transform="translate(37 37)"/>
</clipPath>
</defs>
</svg>
