<svg id="Layer_1" enable-background="new 0 0 550 550" height="512" viewBox="0 0 550 550" width="512" xmlns="http://www.w3.org/2000/svg"><g><g id="_1371_-_IP_Address"><path d="m275 531h-1.56c-110.38-.85-199.17-91.03-198.32-201.41.43-56.17 24.48-109.56 66.25-147.1 2.34-2.34 6.14-2.35 8.49 0 2.34 2.34 2.35 6.14 0 8.49-.16.16-.32.3-.49.44-39.6 35.66-62.22 86.43-62.25 139.71 0 102.87 83.66 187.12 186.49 187.87h2.69c102.92-.74 186.58-85 186.58-187.87-.04-53.29-22.67-104.06-62.28-139.71-2.58-2.07-3-5.85-.92-8.43 2.07-2.58 5.85-3 8.43-.92.17.14.33.28.49.44 82.09 73.8 88.81 200.17 15.01 282.26-37.56 41.78-90.96 65.82-147.14 66.24h-1.47z"/><path d="m275 531h-1.56c-29.83-.54-58.73-17.23-81.37-47-21.84-28.7-37.06-68.48-42.84-112-3.57-27.14-3.57-54.64 0-81.78.35-3.29 3.31-5.68 6.6-5.33s5.68 3.31 5.33 6.6c-.01.1-.03.21-.04.31-3.44 26.09-3.44 52.53 0 78.62 5.51 41.48 19.89 79.24 40.49 106.32 20.37 26.76 46 41.77 72.06 42.24h2.62c26.12-.47 51.7-15.48 72.07-42.24 20.61-27.08 35-64.84 40.5-106.32 3.44-26.09 3.44-52.53 0-78.62-.54-3.27 1.68-6.36 4.95-6.89 3.27-.54 6.36 1.68 6.89 4.95.02.12.04.24.05.36 3.59 27.15 3.59 54.64 0 81.79-5.78 43.5-21 83.28-42.84 112-22.64 29.75-51.54 46.44-81.38 47z"/><path d="m275 531c-21.29 0-34.53-33.31-41.88-61.26-9.77-37.11-15.14-86.33-15.14-138.62 0-8.63.14-17.23.43-25.56.11-3.31 2.89-5.91 6.21-5.79 3.31.11 5.91 2.89 5.79 6.2-.28 8.2-.42 16.66-.42 25.15 0 51.29 5.23 99.43 14.74 135.57 10.15 38.57 22.29 52.31 30.27 52.31s20.12-13.74 30.27-52.31c9.51-36.14 14.75-84.28 14.75-135.57 0-8.51-.14-17-.43-25.15-.11-3.31 2.48-6.09 5.79-6.21s6.09 2.48 6.21 5.8c.28 8.32.43 16.92.43 25.56 0 52.29-5.38 101.51-15.14 138.62-7.36 27.95-20.59 61.26-41.88 61.26z"/><path d="m275 459.57c-52.91 0-102.73-13.07-140.3-36.79-38.42-24.27-59.58-56.78-59.58-91.66 0-21.12 8.11-42.12 23.44-60.6 14.56-17.52 35.61-32.85 60.91-44.34 3.02-1.38 6.58-.05 7.96 2.96 1.38 3.02.05 6.58-2.96 7.96-48.41 22-77.31 57.12-77.31 94 0 64.21 84.28 116.45 187.88 116.45s187.88-52.24 187.88-116.45c0-36.89-28.91-72-77.31-94-3.02-1.38-4.35-4.95-2.96-7.96s4.95-4.35 7.96-2.96c25.3 11.49 46.36 26.82 60.9 44.34 15.34 18.47 23.45 39.43 23.45 60.6 0 34.84-21.16 67.39-59.59 91.66-37.64 23.72-87.47 36.79-140.37 36.79z"/><path d="m275 388.14c-44.34 0-86.19-3.82-121-11-36-7.45-78.84-21.47-78.84-46s42.88-38.53 78.84-46c14.21-2.95 29.82-5.36 46.4-7.16 3.29-.36 6.26 2.02 6.62 5.32.36 3.29-2.02 6.26-5.31 6.61-16.2 1.76-31.43 4.11-45.26 7-51.18 10.57-69.32 25.09-69.32 34.21s18.14 23.64 69.28 34.23c34.06 7.06 75.07 10.79 118.6 10.79s84.54-3.73 118.6-10.79c51.13-10.59 69.28-25.06 69.28-34.23s-18.15-23.64-69.28-34.22c-13.84-2.87-29.06-5.22-45.26-7-3.29-.36-5.67-3.32-5.32-6.61s3.32-5.67 6.61-5.32c16.57 1.8 32.18 4.21 46.39 7.16 36 7.44 78.85 21.46 78.85 46s-42.88 38.53-78.85 46c-34.85 7.19-76.7 11.01-121.03 11.01z"/><path d="m275 347.33c-.99 0-1.97-.25-2.85-.72-1.38-.75-34.27-18.62-67.64-50.7-19.69-18.91-35.39-38.91-46.69-59.3-14.25-25.76-21.48-52.33-21.48-79 0-76.41 62.2-138.61 138.66-138.61s138.65 62.2 138.65 138.65c0 26.63-7.22 53.2-21.48 79-11.29 20.42-27 40.37-46.69 59.3-33.36 32.05-66.25 49.91-67.64 50.66-.87.47-1.85.72-2.84.72zm0-316.33c-69.92.08-126.58 56.73-126.66 126.65 0 55.77 35 101.15 64.28 129.4 18.93 18.11 39.86 34.01 62.38 47.38 22.52-13.38 43.45-29.27 62.38-47.38 29.32-28.25 64.27-73.63 64.27-129.4-.08-69.91-56.74-126.57-126.65-126.65z"/><path d="m275 255.49c-54.04.01-97.84-43.79-97.85-97.83s43.79-97.84 97.83-97.85 97.84 43.79 97.85 97.83v.01c-.06 54.01-43.82 97.77-97.83 97.84zm0-183.67c-47.41-.01-85.84 38.42-85.85 85.83s38.42 85.84 85.83 85.85 85.84-38.42 85.85-85.83c0-.01 0-.01 0-.02-.06-47.38-38.45-85.77-85.83-85.83z"/><path d="m234.18 194.27c-3.31 0-6-2.69-6-6v-61.27c0-3.31 2.69-6 6-6s6 2.69 6 6v61.23c.02 3.31-2.65 6.02-5.96 6.04-.01 0-.03 0-.04 0z"/><path d="m275 194.27c-3.31 0-6-2.69-6-6v-20.41c0-3.31 2.69-6 6-6s6 2.69 6 6v20.41c0 3.31-2.69 6-6 6z"/><path d="m295.81 173.86h-20.81c-3.31 0-6-2.69-6-6v-40.86c0-3.31 2.69-6 6-6h20.81c14.36 0 26 11.64 26 26v.82c.02 14.36-11.6 26.02-25.96 26.04-.01 0-.03 0-.04 0zm-14.81-12h14.81c7.73 0 14-6.27 14-14v-.86c0-7.73-6.27-14-14-14h-14.81z"/></g></g></svg>