<svg xmlns="http://www.w3.org/2000/svg" version="1.1" xmlns:xlink="http://www.w3.org/1999/xlink" xmlns:svgjs="http://svgjs.com/svgjs" width="512" height="512" x="0" y="0" viewBox="0 0 64 64" style="enable-background:new 0 0 512 512" xml:space="preserve" class=""><g><path fill="#ff4c51" d="M54.6 9.4C48.6 3.3 40.5 0 32 0S15.4 3.3 9.4 9.4 0 23.5 0 32s3.3 16.6 9.4 22.6c6 6 14.1 9.4 22.6 9.4s16.6-3.3 22.6-9.4c6-6 9.4-14.1 9.4-22.6s-3.3-16.6-9.4-22.6zm-38.5 6.7C20.3 11.8 26 9.5 32 9.5c4.4 0 8.6 1.3 12.2 3.6L13.1 44.2c-2.3-3.6-3.6-7.8-3.6-12.2 0-6 2.3-11.7 6.6-15.9zm31.8 31.8c-4.3 4.2-9.9 6.6-15.9 6.6-4.4 0-8.6-1.3-12.2-3.6l31.1-31.1c2.3 3.6 3.6 7.8 3.6 12.2 0 6-2.3 11.7-6.6 15.9z" data-original="#f74354" class=""></path></g></svg>