<svg width="220" height="30" viewBox="0 0 220 30" fill="none" xmlns="http://www.w3.org/2000/svg">
<path d="M25.3928 10.544H20.2966C20.1512 9.70826 19.8832 8.9679 19.4926 8.32292C19.102 7.66886 18.616 7.11472 18.0346 6.66051C17.4532 6.2063 16.7901 5.86564 16.0452 5.63854C15.3094 5.40235 14.5145 5.28426 13.6606 5.28426C12.1435 5.28426 10.7991 5.66579 9.6272 6.42886C8.45534 7.18285 7.53783 8.29112 6.87469 9.75368C6.21154 11.2071 5.87997 12.9831 5.87997 15.0816C5.87997 17.2163 6.21154 19.015 6.87469 20.4776C7.54692 21.931 8.46442 23.0302 9.6272 23.7751C10.7991 24.5109 12.139 24.8789 13.6469 24.8789C14.4827 24.8789 15.2639 24.7698 15.9907 24.5518C16.7265 24.3247 17.3851 23.9931 17.9665 23.5571C18.557 23.1211 19.052 22.5851 19.4517 21.9492C19.8605 21.3133 20.1421 20.5866 20.2966 19.769L25.3928 19.7962C25.202 21.1225 24.7887 22.3671 24.1528 23.5299C23.526 24.6926 22.7039 25.7191 21.6865 26.6094C20.669 27.4906 19.479 28.181 18.1164 28.6806C16.7537 29.1711 15.2412 29.4164 13.5788 29.4164C11.1261 29.4164 8.9368 28.8486 7.01095 27.7131C5.0851 26.5776 3.56804 24.9379 2.45977 22.794C1.3515 20.6502 0.797363 18.0793 0.797363 15.0816C0.797363 12.0747 1.35604 9.50386 2.4734 7.36908C3.59075 5.22521 5.11235 3.58551 7.0382 2.44999C8.96405 1.31447 11.1443 0.746704 13.5788 0.746704C15.1322 0.746704 16.5766 0.964724 17.912 1.40076C19.2474 1.83681 20.4374 2.47724 21.4821 3.32207C22.5267 4.15782 23.3852 5.18433 24.0574 6.40161C24.7387 7.60981 25.1839 8.99061 25.3928 10.544Z" fill="#3A3541"/>
<path d="M34.737 1.12824V29.0349H29.8043V1.12824H34.737Z" fill="#3A3541"/>
<path d="M48.939 29.4437C46.8951 29.4437 45.1237 28.994 43.6248 28.0947C42.1259 27.1953 40.9631 25.9372 40.1364 24.3202C39.3189 22.7032 38.9101 20.8137 38.9101 18.6516C38.9101 16.4896 39.3189 14.5956 40.1364 12.9695C40.9631 11.3434 42.1259 10.0807 43.6248 9.18138C45.1237 8.28204 46.8951 7.83237 48.939 7.83237C50.983 7.83237 52.7544 8.28204 54.2533 9.18138C55.7522 10.0807 56.9104 11.3434 57.728 12.9695C58.5546 14.5956 58.968 16.4896 58.968 18.6516C58.968 20.8137 58.5546 22.7032 57.728 24.3202C56.9104 25.9372 55.7522 27.1953 54.2533 28.0947C52.7544 28.994 50.983 29.4437 48.939 29.4437ZM48.9663 25.492C50.0745 25.492 51.0011 25.1877 51.746 24.5791C52.4909 23.9613 53.0451 23.1347 53.4084 22.0991C53.7809 21.0635 53.9671 19.9098 53.9671 18.638C53.9671 17.3571 53.7809 16.1989 53.4084 15.1633C53.0451 14.1186 52.4909 13.2874 51.746 12.6697C51.0011 12.052 50.0745 11.7431 48.9663 11.7431C47.8308 11.7431 46.886 12.052 46.132 12.6697C45.3871 13.2874 44.8284 14.1186 44.456 15.1633C44.0926 16.1989 43.9109 17.3571 43.9109 18.638C43.9109 19.9098 44.0926 21.0635 44.456 22.0991C44.8284 23.1347 45.3871 23.9613 46.132 24.5791C46.886 25.1877 47.8308 25.492 48.9663 25.492Z" fill="#3A3541"/>
<path d="M76.4948 20.2323V8.1049H81.4275V29.0349H76.6447V25.3149H76.4267C75.9543 26.4868 75.1776 27.4451 74.0966 28.19C73.0246 28.9349 71.7029 29.3074 70.1313 29.3074C68.7596 29.3074 67.5469 29.0031 66.4931 28.3944C65.4484 27.7767 64.6308 26.8819 64.0404 25.7101C63.4499 24.5291 63.1546 23.1029 63.1546 21.4314V8.1049H68.0874V20.6683C68.0874 21.9946 68.4507 23.0484 69.1775 23.8296C69.9042 24.6109 70.858 25.0015 72.039 25.0015C72.7657 25.0015 73.4697 24.8243 74.1511 24.4701C74.8324 24.1158 75.3911 23.5889 75.8271 22.8894C76.2722 22.1808 76.4948 21.2951 76.4948 20.2323Z" fill="#3A3541"/>
<path d="M94.2669 29.4028C92.6226 29.4028 91.151 28.9804 89.8519 28.1355C88.5529 27.2907 87.5264 26.0643 86.7724 24.4564C86.0184 22.8485 85.6414 20.8954 85.6414 18.5971C85.6414 16.2716 86.023 14.3094 86.786 12.7106C87.5582 11.1027 88.5983 9.88994 89.9064 9.07236C91.2146 8.2457 92.6726 7.83237 94.2805 7.83237C95.5069 7.83237 96.5152 8.04131 97.3055 8.45918C98.0958 8.86797 98.7227 9.36306 99.1859 9.94445C99.6492 10.5168 100.008 11.0573 100.262 11.566H100.467V1.12824H105.413V29.0349H100.562V25.7373H100.262C100.008 26.246 99.6402 26.7865 99.1587 27.3588C98.6772 27.9221 98.0413 28.4035 97.251 28.8032C96.4607 29.2029 95.466 29.4028 94.2669 29.4028ZM95.6431 25.3558C96.6878 25.3558 97.578 25.0742 98.3139 24.5109C99.0497 23.9386 99.6084 23.1438 99.9899 22.1263C100.371 21.1089 100.562 19.9234 100.562 18.5699C100.562 17.2163 100.371 16.0399 99.9899 15.0407C99.6174 14.0414 99.0633 13.2647 98.3275 12.7106C97.6008 12.1564 96.706 11.8794 95.6431 11.8794C94.5439 11.8794 93.6264 12.1655 92.8906 12.7378C92.1548 13.3101 91.6007 14.1005 91.2282 15.1088C90.8557 16.1172 90.6695 17.2708 90.6695 18.5699C90.6695 19.878 90.8557 21.0453 91.2282 22.0718C91.6097 23.0893 92.1684 23.8932 92.9042 24.4837C93.6491 25.0651 94.5621 25.3558 95.6431 25.3558Z" fill="#3A3541"/>
<path d="M110.888 29.0349V1.12824H128.765V5.36602H115.943V12.9422H127.539V17.18H115.943V29.0349H110.888Z" fill="#3A3541"/>
<path d="M142.419 29.4437C140.32 29.4437 138.508 29.0076 136.982 28.1355C135.465 27.2544 134.297 26.0098 133.48 24.4019C132.662 22.7849 132.254 20.8818 132.254 18.6925C132.254 16.5396 132.662 14.6501 133.48 13.024C134.307 11.3888 135.46 10.117 136.941 9.20863C138.422 8.29112 140.161 7.83237 142.16 7.83237C143.45 7.83237 144.667 8.04131 145.812 8.45918C146.965 8.86797 147.983 9.50386 148.864 10.3669C149.754 11.2299 150.454 12.329 150.962 13.6644C151.471 14.9907 151.725 16.5714 151.725 18.4064V19.9189H134.57V16.5941H146.997C146.988 15.6493 146.784 14.809 146.384 14.0732C145.984 13.3283 145.426 12.7424 144.708 12.3154C143.999 11.8885 143.173 11.675 142.228 11.675C141.22 11.675 140.334 11.9203 139.571 12.4108C138.808 12.8923 138.213 13.5282 137.786 14.3185C137.368 15.0997 137.154 15.9582 137.145 16.8939V19.7962C137.145 21.0135 137.368 22.0582 137.813 22.9303C138.258 23.7933 138.88 24.4564 139.68 24.9197C140.479 25.3739 141.415 25.601 142.487 25.601C143.205 25.601 143.854 25.5011 144.435 25.3013C145.017 25.0923 145.521 24.788 145.948 24.3883C146.375 23.9886 146.697 23.4935 146.915 22.903L151.521 23.4208C151.23 24.6381 150.676 25.701 149.859 26.6094C149.05 27.5087 148.015 28.2082 146.752 28.7078C145.489 29.1984 144.045 29.4437 142.419 29.4437Z" fill="#3A3541"/>
<path d="M160.831 16.7712V29.0349H155.899V8.1049H160.613V11.6614H160.859C161.34 10.4895 162.108 9.55837 163.161 8.86797C164.224 8.17757 165.537 7.83237 167.099 7.83237C168.544 7.83237 169.802 8.14123 170.874 8.75896C171.955 9.37668 172.791 10.2715 173.381 11.4433C173.981 12.6152 174.276 14.0369 174.267 15.7084V29.0349H169.334V16.4714C169.334 15.0725 168.971 13.9778 168.244 13.1875C167.526 12.3972 166.532 12.002 165.26 12.002C164.397 12.002 163.629 12.1928 162.957 12.5743C162.294 12.9468 161.771 13.4873 161.39 14.1958C161.017 14.9044 160.831 15.7629 160.831 16.7712Z" fill="#3A3541"/>
<path d="M188.411 29.4437C186.321 29.4437 184.527 28.9849 183.028 28.0674C181.539 27.1499 180.39 25.8827 179.581 24.2657C178.782 22.6396 178.382 20.7683 178.382 18.6516C178.382 16.5259 178.791 14.6501 179.608 13.024C180.426 11.3888 181.58 10.117 183.069 9.20863C184.568 8.29112 186.34 7.83237 188.384 7.83237C190.082 7.83237 191.586 8.14578 192.894 8.77259C194.211 9.39031 195.26 10.2669 196.042 11.4025C196.823 12.5289 197.268 13.8461 197.377 15.3541H192.662C192.471 14.3457 192.017 13.5054 191.3 12.8332C190.591 12.1519 189.642 11.8112 188.452 11.8112C187.443 11.8112 186.558 12.0838 185.795 12.6288C185.032 13.1648 184.437 13.9369 184.01 14.9453C183.592 15.9536 183.383 17.1618 183.383 18.5699C183.383 19.9961 183.592 21.2225 184.01 22.249C184.427 23.2664 185.013 24.0522 185.767 24.6063C186.53 25.1514 187.425 25.4239 188.452 25.4239C189.178 25.4239 189.828 25.2876 190.4 25.0151C190.982 24.7335 191.468 24.3293 191.858 23.8024C192.249 23.2755 192.517 22.6351 192.662 21.8811H197.377C197.259 23.3618 196.823 24.6745 196.069 25.8191C195.315 26.9546 194.288 27.8448 192.989 28.4898C191.69 29.1257 190.164 29.4437 188.411 29.4437Z" fill="#3A3541"/>
<path d="M210.693 29.4437C208.595 29.4437 206.782 29.0076 205.256 28.1355C203.739 27.2544 202.572 26.0098 201.754 24.4019C200.937 22.7849 200.528 20.8818 200.528 18.6925C200.528 16.5396 200.937 14.6501 201.754 13.024C202.581 11.3888 203.735 10.117 205.215 9.20863C206.696 8.29112 208.436 7.83237 210.434 7.83237C211.724 7.83237 212.942 8.04131 214.086 8.45918C215.24 8.86797 216.257 9.50386 217.138 10.3669C218.029 11.2299 218.728 12.329 219.237 13.6644C219.746 14.9907 220 16.5714 220 18.4064V19.9189H202.844V16.5941H215.272C215.263 15.6493 215.058 14.809 214.658 14.0732C214.259 13.3283 213.7 12.7424 212.982 12.3154C212.274 11.8885 211.447 11.675 210.502 11.675C209.494 11.675 208.608 11.9203 207.845 12.4108C207.082 12.8923 206.487 13.5282 206.06 14.3185C205.642 15.0997 205.429 15.9582 205.42 16.8939V19.7962C205.42 21.0135 205.642 22.0582 206.088 22.9303C206.533 23.7933 207.155 24.4564 207.954 24.9197C208.754 25.3739 209.689 25.601 210.761 25.601C211.479 25.601 212.129 25.5011 212.71 25.3013C213.291 25.0923 213.795 24.788 214.222 24.3883C214.649 23.9886 214.972 23.4935 215.19 22.903L219.796 23.4208C219.505 24.6381 218.951 25.701 218.133 26.6094C217.325 27.5087 216.289 28.2082 215.026 28.7078C213.764 29.1984 212.319 29.4437 210.693 29.4437Z" fill="#3A3541"/>
<path d="M25.3928 10.544H20.2966C20.1512 9.70826 19.8832 8.96789 19.4926 8.32292C19.102 7.66886 18.616 7.11472 18.0346 6.66051C17.4532 6.2063 16.7901 5.86564 16.0452 5.63854C15.3094 5.40235 14.5145 5.28426 13.6606 5.28426C12.1435 5.28426 10.7991 5.66579 9.62719 6.42886C8.45533 7.18285 7.53783 8.29112 6.87469 9.75368C6.21154 11.2071 5.87997 12.9831 5.87997 15.0816C5.87997 17.2163 6.21154 19.015 6.87469 20.4776C7.54692 21.931 8.46442 23.0302 9.62719 23.7751C10.7991 24.5109 12.139 24.8789 13.6469 24.8789C14.4827 24.8789 15.2639 24.7698 15.9907 24.5518C16.7265 24.3247 17.3851 23.9931 17.9665 23.5571C18.557 23.1211 19.052 22.5851 19.4517 21.9492C19.8605 21.3133 20.1421 20.5866 20.2966 19.769L25.3928 19.7962C25.202 21.1225 24.7887 22.3671 24.1528 23.5298C23.526 24.6926 22.7039 25.7191 21.6865 26.6094C20.669 27.4906 19.479 28.181 18.1164 28.6806C16.7537 29.1711 15.2412 29.4164 13.5788 29.4164C11.1261 29.4164 8.9368 28.8486 7.01095 27.7131C5.0851 26.5776 3.56804 24.9379 2.45977 22.794C1.3515 20.6502 0.797363 18.0793 0.797363 15.0816C0.797363 12.0747 1.35604 9.50386 2.4734 7.36908C3.59075 5.22521 5.11235 3.58551 7.0382 2.44999C8.96405 1.31447 11.1443 0.746704 13.5788 0.746704C15.1322 0.746704 16.5766 0.964724 17.912 1.40076C19.2474 1.83681 20.4374 2.47724 21.4821 3.32207C22.5267 4.15782 23.3852 5.18433 24.0574 6.40161C24.7387 7.60981 25.1839 8.99061 25.3928 10.544Z" fill="#9155FD"/>
<path d="M110.888 29.0349V1.12824H128.765V5.36602H115.943V12.9422H127.539V17.18H115.943V29.0349H110.888Z" fill="#9155FD"/>
</svg>
