<svg width="100" height="67" viewBox="0 0 100 67" fill="none" xmlns="http://www.w3.org/2000/svg">
<path d="M40.8867 15.625C38.7293 15.625 36.9805 17.3738 36.9805 19.5312V46.875C36.9805 49.0324 38.7293 50.7812 40.8867 50.7812C43.0441 50.7812 44.793 49.0324 44.793 46.875V19.5312C44.793 17.3738 43.0441 15.625 40.8867 15.625Z" fill="#006BBE"/>
<path d="M22.6562 15.625C20.4988 15.625 18.75 17.3738 18.75 19.5312V46.875C18.75 49.0324 20.4988 50.7812 22.6562 50.7812C24.8137 50.7812 26.5625 49.0324 26.5625 46.875V19.5312C26.5625 17.3738 24.8137 15.625 22.6562 15.625Z" fill="#006BBE"/>
<path d="M77.3438 15.625C75.1863 15.625 73.4375 17.3738 73.4375 19.5312V46.875C73.4375 49.0324 75.1863 50.7812 77.3438 50.7812C79.5012 50.7812 81.25 49.0324 81.25 46.875V19.5312C81.25 17.3738 79.5012 15.625 77.3438 15.625Z" fill="#006BBE"/>
<path d="M59.1133 15.625C56.9559 15.625 55.207 17.3738 55.207 19.5312V46.875C55.207 49.0324 56.9559 50.7812 59.1133 50.7812C61.2707 50.7812 63.0195 49.0324 63.0195 46.875V19.5312C63.0195 17.3738 61.2707 15.625 59.1133 15.625Z" fill="#006BBE"/>
<path d="M88.2812 0H11.7188C5.25703 0 0 5.25703 0 11.7188V54.6875C0 61.1492 5.25703 66.4062 11.7188 66.4062H88.2812C94.743 66.4062 100 61.1492 100 54.6875V11.7188C100 5.25703 94.743 0 88.2812 0ZM92.1875 54.6875C92.1875 56.8414 90.4352 58.5938 88.2812 58.5938H11.7188C9.56484 58.5938 7.8125 56.8414 7.8125 54.6875V11.7188C7.8125 9.56484 9.56484 7.8125 11.7188 7.8125H88.2812C90.4352 7.8125 92.1875 9.56484 92.1875 11.7188V54.6875Z" fill="#006BBE"/>
</svg>
