<svg width="94" height="94" viewBox="0 0 94 94" fill="none" xmlns="http://www.w3.org/2000/svg">
<path d="M82.7637 93.75H32.959C26.9005 93.75 21.9727 88.8222 21.9727 82.7637V32.959C21.9727 26.9005 26.9005 21.9727 32.959 21.9727H82.7637C88.8222 21.9727 93.75 26.9005 93.75 32.959V82.7637C93.75 88.8222 88.8222 93.75 82.7637 93.75ZM32.959 29.2969C30.9397 29.2969 29.2969 30.9397 29.2969 32.959V82.7637C29.2969 84.783 30.9397 86.4258 32.959 86.4258H82.7637C84.783 86.4258 86.4258 84.783 86.4258 82.7637V32.959C86.4258 30.9397 84.783 29.2969 82.7637 29.2969H32.959ZM14.6484 64.4531H10.9863C8.96702 64.4531 7.32422 62.8103 7.32422 60.791V10.9863C7.32422 8.96702 8.96702 7.32422 10.9863 7.32422H60.791C62.8103 7.32422 64.4531 8.96702 64.4531 10.9863V14.4653H71.7773V10.9863C71.7773 4.92783 66.8495 0 60.791 0H10.9863C4.92783 0 0 4.92783 0 10.9863V60.791C0 66.8495 4.92783 71.7773 10.9863 71.7773H14.6484V64.4531Z" fill="#006BBE"/>
</svg>
