<svg width="79" height="95" viewBox="0 0 79 95" fill="none" xmlns="http://www.w3.org/2000/svg">
<path d="M39.2264 0C17.2186 0 0 9.93238 0 22.6041V72.061C0 84.7327 17.2372 94.6651 39.2264 94.6651C61.2342 94.6651 78.4528 84.7327 78.4528 72.061V22.6041C78.4528 9.93238 61.2342 0 39.2264 0ZM73.1977 72.061C73.1977 81.4716 57.6376 89.41 39.2264 89.41C20.8151 89.41 5.25503 81.4716 5.25503 72.061V67.1228C11.9822 73.8313 24.5421 78.2664 39.2264 78.2664C53.9107 78.2664 66.4705 73.8313 73.1977 67.1228V72.061ZM73.1977 55.4014C73.1977 64.812 57.6376 72.7505 39.2264 72.7505C20.8151 72.7505 5.25503 64.812 5.25503 55.4014V50.7055C11.9822 57.414 24.5421 61.8491 39.2264 61.8491C53.9107 61.8491 66.4705 57.414 73.1977 50.7055V55.4014ZM73.1977 39.0028C73.1977 48.4134 57.6376 56.3518 39.2264 56.3518C20.8151 56.3518 5.25503 48.4134 5.25503 39.0028V34.0832C11.9822 40.7917 24.5421 45.2268 39.2264 45.2268C53.9107 45.2268 66.4705 40.8103 73.1977 34.0832V39.0028ZM39.2264 39.9531C20.8151 39.9531 5.25503 32.0147 5.25503 22.6041C5.25503 13.1935 20.8151 5.25503 39.2264 5.25503C57.6376 5.25503 73.1977 13.1935 73.1977 22.6041C73.1977 32.0147 57.6376 39.9531 39.2264 39.9531Z" fill="#09C29A"/>
</svg>
